#!OML:ASF E:\Steps\Project 1\Capture day 1\Session 2\Subject.ASF
:FULLY-SPECIFIED
:DEGREES
189
root 10.0014 13.7576 11.1458 -141.536 -15.4344 178.684
lowerback -12.0073 0.0271037 -6.04785
upperback -1.41675 0.740212 -2.23861
thorax 5.19439 0.168448 1.16851
lowerneck 1.46661 0.00529634 -2.99483
upperneck 8.6544 -0.831795 6.77895
head 2.56549 -0.487916 2.71582
rclavicle 6.36111e-015 -5.48646e-014
rhumerus -50.0299 13.6463 -92.9732
rradius 79.5569
rwrist -5.29832
rhand -20.1771 -43.3755
rfingers 7.12502
rthumb 6.16887 -73.2657
lclavicle 6.36111e-015 -5.48646e-014
lhumerus -31.4267 -8.88637 77.7659
lradius 48.6717
lwrist 0.825714
lhand -26.9396 -16.4567
lfingers 7.12502
lthumb -0.361738 13.5228
rfemur -72.088 1.04172 26.5353
rtibia 73.1888
rfoot -46.417 -16.4317
rtoes -30.5091
lfemur -79.2166 -6.15665 -16.2085
ltibia 75.1604
lfoot -25.2456 -7.43639
ltoes -4.97873
190
root 10.0411 13.6617 11.1459 -141.958 -16.0171 178.634
lowerback -11.0154 0.246791 -6.23341
upperback -1.47232 0.981807 -2.37528
thorax 4.56761 0.305056 1.1604
lowerneck 1.54417 -0.0558621 -2.84249
upperneck 8.65986 -0.919521 6.79439
head 2.55676 -0.528105 2.69104
rclavicle 5.96354e-014 -1.74931e-014
rhumerus -49.4105 14.8056 -94.0702
rradius 79.4643
rwrist -4.97508
rhand -20.3836 -43.7292
rfingers 7.12502
rthumb 5.96949 -73.6251
lclavicle 5.96354e-014 -1.74931e-014
lhumerus -31.5051 -6.30055 77.7291
lradius 48.502
lwrist 0.830541
lhand -27.5053 -16.505
lfingers 7.12502
lthumb -0.908084 13.4728
rfemur -72.3332 0.971938 27.0003
rtibia 74.6652
rfoot -47.0826 -17.1096
rtoes -30.3805
lfemur -79.3965 -6.66071 -15.585
ltibia 76.2246
lfoot -25.9678 -8.08142
ltoes -3.99602
191
root 10.0721 13.5719 11.1352 -142.474 -16.8005 178.552
lowerback -10.1125 0.476272 -6.2013
upperback -1.4365 1.2259 -2.54724
thorax 4.09174 0.443788 0.988304
lowerneck 1.54711 -0.130802 -2.70923
upperneck 8.65814 -1.02102 6.82172
head 2.5603 -0.572654 2.67406
rclavicle -5.20816e-014 1.23246e-014
rhumerus -48.6359 16.0767 -95.2724
rradius 79.3106
rwrist -4.60434
rhand -19.7198 -46.0158
rfingers 7.12502
rthumb 6.6103 -75.8927
lclavicle -5.20816e-014 1.23246e-014
lhumerus -31.5847 -3.91678 77.7512
lradius 48.4896
lwrist 1.47531
lhand -28.6404 -16.5321
lfingers 7.12502
lthumb -2.00443 13.4382
rfemur -72.334 0.706531 27.5019
rtibia 75.8804
rfoot -47.2442 -18.2278
rtoes -31.6172
lfemur -79.3897 -7.39142 -15.0381
ltibia 77.144
lfoot -26.573 -8.41168
ltoes -2.93019
192
root 10.1031 13.4851 11.1208 -142.74 -17.6953 178.386
lowerback -9.60975 0.713616 -6.2802
upperback -1.41644 1.51775 -2.72417
thorax 3.81764 0.596237 0.878504
lowerneck 1.63726 -0.18695 -2.45706
upperneck 8.64551 -1.09596 6.7881
head 2.54043 -0.604229 2.61417
rclavicle -4.41302e-014 -2.5842e-014
rhumerus -47.771 17.5325 -96.5067
rradius 79.1976
rwrist -4.07285
rhand -19.124 -46.5139
rfingers 7.12502
rthumb 7.18543 -76.3719
lclavicle -4.41302e-014 -2.5842e-014
lhumerus -31.6255 -1.93122 77.8655
lradius 48.399
lwrist 2.5106
lhand -29.9207 -17.0155
lfingers 7.12502
lthumb -3.24088 12.9396
rfemur -72.54 0.317812 27.989
rtibia 77.0581
rfoot -47.4562 -19.0029
rtoes -31.6651
lfemur -79.6138 -8.19867 -14.6075
ltibia 78.0346
lfoot -26.8378 -9.05694
ltoes 0.528795
193
root 10.1404 13.4068 11.1063 -142.827 -18.6845 178.247
lowerback -9.35628 0.944787 -6.49895
upperback -1.42686 1.82985 -2.78161
thorax 3.64156 0.754616 0.973686
lowerneck 1.77144 -0.190109 -2.29342
upperneck 8.6373 -1.09612 6.72889
head 2.51057 -0.602438 2.56319
rclavicle 8.78628e-014 3.22031e-014
rhumerus -46.8393 19.339 -97.6529
rradius 79.0642
rwrist -3.54535
rhand -19.1413 -47.0696
rfingers 7.12502
rthumb 7.16878 -76.9282
lclavicle 8.78628e-014 3.22031e-014
lhumerus -31.8527 0.31684 78.0972
lradius 48.3845
lwrist 3.05889
lhand -30.7023 -18.3069
lfingers 7.12502
lthumb -3.99562 11.6354
rfemur -72.9092 -0.064202 28.5875
rtibia 78.2088
rfoot -47.7564 -19.5291
rtoes -31.0072
lfemur -80.1227 -8.97458 -14.0495
ltibia 78.9717
lfoot -27.0018 -9.63788
ltoes 3.65875
194
root 10.1792 13.3385 11.0893 -142.859 -19.7588 177.98
lowerback -9.13416 1.18792 -6.71726
upperback -1.4594 2.15548 -2.91269
thorax 3.45985 0.918767 0.990987
lowerneck 1.8641 -0.178509 -2.21882
upperneck 8.63308 -1.07397 6.6902
head 2.4898 -0.589915 2.53629
rclavicle 1.11319e-014 -3.18055e-014
rhumerus -45.6916 21.383 -98.9333
rradius 78.5825
rwrist -3.31051
rhand -19.8111 -47.0465
rfingers 7.12502
rthumb 6.52216 -76.926
lclavicle 1.11319e-014 -3.18055e-014
lhumerus -32.4526 2.46914 78.3058
lradius 48.7765
lwrist 3.69529
lhand -30.921 -19.1825
lfingers 7.12502
lthumb -4.20688 10.7557
rfemur -73.2635 -0.576534 29.1564
rtibia 79.1998
rfoot -47.7778 -20.5088
rtoes -31.6256
lfemur -80.685 -9.89233 -13.4848
ltibia 79.8267
lfoot -27.0911 -10.2037
ltoes 6.78381
195
root 10.2156 13.2934 11.0702 -143.268 -20.2184 178.151
lowerback -8.76262 1.80734 -6.75638
upperback -1.47391 2.95721 -3.22072
thorax 3.20013 1.3243 0.768885
lowerneck 1.93611 -0.200654 -1.95281
upperneck 8.62248 -1.09504 6.61755
head 2.47035 -0.593409 2.46221
rclavicle 8.34896e-015 7.83212e-014
rhumerus -44.3944 23.3596 -100.419
rradius 78.1201
rwrist -3.2646
rhand -20.9716 -46.3145
rfingers 7.12502
rthumb 5.40175 -76.2257
lclavicle 8.34896e-015 7.83212e-014
lhumerus -33.3356 3.79069 78.4864
lradius 49.5896
lwrist 5.00218
lhand -31.0426 -18.8149
lfingers 7.12502
lthumb -4.32432 11.121
rfemur -73.2136 -0.457163 29.7094
rtibia 80.0824
rfoot -47.7377 -21.277
rtoes -32.4652
lfemur -80.7793 -10.176 -12.9357
ltibia 80.4582
lfoot -26.9747 -10.9419
ltoes 9.42199
196
root 10.2544 13.2576 11.0318 -143.638 -21.1567 177.914
lowerback -8.59276 2.23896 -7.00828
upperback -1.32001 3.55875 -3.49742
thorax 3.23222 1.61711 0.679647
lowerneck 1.96473 -0.215073 -1.71497
upperneck 8.61248 -1.10183 6.53505
head 2.45843 -0.589101 2.39067
rclavicle 1.51076e-014 8.78628e-014
rhumerus -43.0264 25.5551 -101.837
rradius 77.9783
rwrist -3.21975
rhand -19.6458 -47.2286
rfingers 7.12502
rthumb 6.68179 -77.1032
lclavicle 1.51076e-014 8.78628e-014
lhumerus -34.4326 4.58377 78.8144
lradius 50.7815
lwrist 6.62984
lhand -31.3414 -18.8607
lfingers 7.12502
lthumb -4.61279 11.069
rfemur -72.9638 -1.00471 30.2247
rtibia 80.7354
rfoot -47.6814 -21.8826
rtoes -32.7839
lfemur -80.644 -11.0168 -12.405
ltibia 80.761
lfoot -26.6313 -11.7194
ltoes 11.458
197
root 10.2955 13.2433 10.9896 -144.069 -22.0973 177.703
lowerback -8.42897 2.76089 -7.22459
upperback -1.13401 4.28123 -3.80564
thorax 3.29993 1.96855 0.548466
lowerneck 1.951 -0.258332 -1.46983
upperneck 8.59303 -1.14667 6.47769
head 2.45312 -0.601523 2.32604
rclavicle -3.06128e-014 -3.65764e-014
rhumerus -41.324 28.0846 -103.039
rradius 77.7347
rwrist -2.66406
rhand -23.7361 -45.6097
rfingers 7.12502
rthumb 2.73219 -75.5719
lclavicle -3.06128e-014 -3.65764e-014
lhumerus -35.6099 4.85627 79.2156
lradius 52.1095
lwrist 8.16569
lhand -32.0188 -19.6334
lfingers 7.12502
lthumb -5.26689 10.2812
rfemur -72.5502 -1.56711 30.7664
rtibia 81.2048
rfoot -47.6545 -22.4195
rtoes -32.5923
lfemur -80.2158 -11.7847 -11.839
ltibia 80.6979
lfoot -26.1836 -12.5556
ltoes 13.6171
198
root 10.3423 13.2516 10.9388 -144.653 -23.1328 177.574
lowerback -8.24603 3.33878 -7.4751
upperback -0.878871 5.08709 -4.06163
thorax 3.41965 2.35929 0.496058
lowerneck 1.88442 -0.287703 -1.17424
upperneck 8.5581 -1.16824 6.39794
head 2.45018 -0.599693 2.24535
rclavicle 1.98785e-014 -3.43897e-014
rhumerus -39.3534 30.8935 -103.896
rradius 77.4406
rwrist -1.1604
rhand -22.8746 -45.1687
rfingers 7.12502
rthumb 3.56419 -75.1187
lclavicle 1.98785e-014 -3.43897e-014
lhumerus -36.7549 4.80586 79.6512
lradius 53.4175
lwrist 9.36153
lhand -32.7569 -19.9789
lfingers 7.12502
lthumb -5.97955 9.91667
rfemur -71.7856 -2.03967 31.3146
rtibia 81.3583
rfoot -47.8312 -22.5912
rtoes -31.3042
lfemur -79.4704 -12.5149 -11.2034
ltibia 80.4683
lfoot -25.7367 -13.4729
ltoes 16.2091
199
root 10.3884 13.2741 10.8831 -145.144 -24.2154 177.602
lowerback -8.30841 3.88926 -7.67842
upperback -0.703016 5.87018 -4.2083
thorax 3.58849 2.73814 0.540711
lowerneck 1.86923 -0.22213 -1.00164
upperneck 8.51766 -1.05818 6.28431
head 2.43124 -0.537911 2.17752
rclavicle -3.28989e-014 -1.88845e-014
rhumerus -37.5294 34.0669 -104.627
rradius 77.6116
rwrist 0.573983
rhand -16.3418 -44.552
rfingers 7.12502
rthumb 9.87045 -74.3006
lclavicle -3.28989e-014 -1.88845e-014
lhumerus -38.1062 4.57321 80.073
lradius 54.7843
lwrist 10.2248
lhand -33.3463 -19.7233
lfingers 7.12502
lthumb -6.54856 10.1554
rfemur -70.7342 -2.5668 32.0599
rtibia 80.5994
rfoot -47.5105 -22.9367
rtoes -30.4696
lfemur -78.7531 -13.0213 -10.5256
ltibia 80.0643
lfoot -25.2447 -14.2816
ltoes 18.5859
